<?xml version="1.0" encoding="utf-8"?>
<!-- Generator: Adobe Illustrator 25.1.0, SVG Export Plug-In . SVG Version: 6.00 Build 0)  -->
<svg version="1.1" id="svg_logo_black" xmlns="http://www.w3.org/2000/svg" xmlns:xlink="http://www.w3.org/1999/xlink" x="0px"
	 y="0px" viewBox="0 0 1200 141" style="enable-background:new 0 0 1200 141;" xml:space="preserve">
<style type="text/css">
	.st0{fill:#FFFFFF;}
</style>
<g>
	<path shape-rendering="auto" class="st0" d="M0,2.3h30.2c19.6,0,29.4,12.9,29.4,38.8c0,10.3-1.7,18.4-5.2,24.3
		c-3.5,5.9-7.8,9.6-13,11.2c-5.2,1.5-12.8,2.4-22.9,2.5v60.1H0V2.3z M18.5,64.9c7.8,0,13.4-1.6,16.8-4.7c3.4-3.2,5.1-9.5,5.1-19
		c0-9.6-1.5-16.1-4.4-19.6s-8.7-5.2-17.4-5.2V64.9z"/>
	<path shape-rendering="auto" class="st0" d="M175,139.2h-49.5V2.3h48.7v15.6h-30.4v43.4h28.2v15.6h-28.2v47.2H175L175,139.2
		L175,139.2z"/>
	<path shape-rendering="auto" class="st0" d="M310.6,139.2h-17.8l-5-27.1h-29l-5.1,27.1h-17.6L265.7,2.3h15.1L310.6,139.2z
		 M285.4,98.3l-12-64.9h-0.4l-11.4,64.9H285.4z"/>
	<path shape-rendering="auto" class="st0" d="M436.6,139.2h-19.2L396,75h-1.6v64.3h-18.5V2.3h25.6c20.8,0,31.3,11.7,31.3,35
		c0,10.6-1.5,18.6-4.6,24c-3.1,5.4-8.1,9.4-15,12.1L436.6,139.2z M394.4,62.4c7.2-0.1,12.3-1.8,15.5-5.1c3.2-3.3,4.8-9.2,4.8-17.8
		c0-8.2-1.5-14.1-4.4-17.6c-2.9-3.5-7.9-5.3-14.9-5.3h-1.1L394.4,62.4L394.4,62.4z"/>
	<path shape-rendering="auto" class="st0" d="M549.8,139.2h-49.5V2.3h18.5v121.5h31.1L549.8,139.2L549.8,139.2z"/>
	<path shape-rendering="auto" class="st0" d="M718.9,139.2h-17.8l-5-27.1h-29l-5.1,27.1h-17.6L674,2.3h15.1L718.9,139.2z
		 M693.6,98.3l-12-64.9h-0.4l-11.4,64.9H693.6z"/>
	<path shape-rendering="auto" class="st0" d="M784.6,2.3h21.6c11.7,0,20.4,2.9,26,8.6c5.6,5.8,8.4,14.8,8.4,27
		c0,17.3-6.6,28.3-19.9,33c14.4,2.9,21.6,14.3,21.6,34.2c0,10.9-2.6,19.3-7.8,25.2c-5.2,5.9-12.7,8.9-22.3,8.9h-27.5V2.3z
		 M802.9,16.4V64c7-0.2,12.1-2,15.3-5.5c3.2-3.4,4.8-9.4,4.8-17.9c0-9.2-1.4-15.6-4.1-19C816.1,18.1,810.8,16.4,802.9,16.4z
		 M802.9,77.6v47.7c7.3-0.1,12.5-1.7,15.6-4.8c3.1-3,4.7-9,4.7-17.9c0-9.5-1.6-16-4.7-19.6C815.3,79.5,810.1,77.7,802.9,77.6z"/>
	<path shape-rendering="auto" class="st0" d="M971.3,2.3l-26.6,78.5v58.3h-18.5V81.7l-26-79.4h18.3l17,61.7l0.4-0.2l17.2-61.5
		L971.3,2.3L971.3,2.3z"/>
	<path shape-rendering="auto" class="st0" d="M1079.8,19.9c-6-3.2-11.4-4.8-16.2-4.8s-8.9,1.7-12.3,5.2c-3.4,3.4-5.1,7.6-5.1,12.5
		c0,3.4,1,7.1,3,11c2,3.9,6.6,10.1,13.7,18.7c7.1,8.6,12.5,16,16.3,22.3c3.8,6.3,5.6,13.5,5.6,21.7c0,10.2-3.1,18.4-9.2,24.8
		c-6.1,6.3-14.1,9.5-24,9.5c-5.4,0-12.1-1.6-20-4.8v-16.4c0.2,0.1,0.4,0.2,0.6,0.3c1.1,0.8,3.3,2,6.8,3.6c3.4,1.6,6.8,2.4,10.1,2.4
		c5.4,0,9.8-1.8,13.3-5.4c3.5-3.6,5.2-8.2,5.2-13.8c0-3.9-0.9-7.4-2.7-10.7c-1.8-3.3-5-7.8-9.6-13.4l-12.3-15.2
		c-4.8-5.9-8.3-11.3-10.6-16.1c-2.3-4.9-3.4-10.7-3.4-17.4c0-10,2.9-18.1,8.7-24.3c5.8-6.2,13.3-9.4,22.6-9.4c6.4,0,13,1.6,19.6,4.8
		V19.9L1079.8,19.9z"/>
	<path shape-rendering="auto" class="st0" d="M1194.9,19.9c-6-3.2-11.4-4.8-16.2-4.8c-4.8,0-8.9,1.7-12.3,5.2
		c-3.4,3.4-5.1,7.6-5.1,12.5c0,3.4,1,7.1,3,11c2,3.9,6.6,10.1,13.7,18.7c7.1,8.6,12.5,16,16.3,22.3c3.8,6.3,5.6,13.5,5.6,21.7
		c0,10.2-3.1,18.4-9.2,24.8c-6.1,6.3-14.1,9.5-24,9.5c-5.4,0-12.1-1.6-20-4.8v-16.4c0.2,0.1,0.4,0.2,0.6,0.3c1.1,0.8,3.3,2,6.8,3.6
		c3.4,1.6,6.8,2.4,10.1,2.4c5.4,0,9.8-1.8,13.3-5.4c3.5-3.6,5.2-8.2,5.2-13.8c0-3.9-0.9-7.4-2.7-10.7c-1.8-3.3-5-7.8-9.6-13.4
		l-12.3-15.2c-4.8-5.9-8.3-11.3-10.6-16.1c-2.3-4.9-3.4-10.7-3.4-17.4c0-10,2.9-18.1,8.7-24.3c5.8-6.2,13.3-9.4,22.6-9.4
		c6.4,0,13,1.6,19.6,4.8L1194.9,19.9L1194.9,19.9z"/>
</g>
</svg>
