<?xml version="1.0" encoding="utf-8"?>
<!-- Generator: Adobe Illustrator 25.4.1, SVG Export Plug-In . SVG Version: 6.00 Build 0)  -->
<svg version="1.1" id="레이어_1" xmlns="http://www.w3.org/2000/svg" xmlns:xlink="http://www.w3.org/1999/xlink" x="0px"
	 y="0px" viewBox="0 0 1200 1560" style="enable-background:new 0 0 1200 1560;" xml:space="preserve">
<style type="text/css">
	.st0{fill:none;stroke:#1C1D1B;stroke-width:5.6693;stroke-miterlimit:10;}
</style>
<path class="st0" d="M894.74,1665.9c-208.33-237.75,74.01-456.64,166.41-597.67c75.96-115.94,37.98-214.88-96.81-158.01
	c-61.2,25.82-136.56,31.08-189.54,48.57c-33.26,10.98-88.61,29.65-132.1,42.5c-43.49,12.85-96.27,10.12-95.72,1.64
	s26.53-13.67,82.32-16.41c55.79-2.73,109.95-33.37,139.21-39.11c29.26-5.74,105.57-20.51,133.47-32s25.23-52.55,32.82-51.28
	s10.67,60.03-19.28,77.54c-21.08,12.32-123.99,27.63-163.69,39.79c-47.89,14.67-69.33,27.49-147.69,42.26
	c-132.8,25.03-363.48-32-359.79-50.05c2.02-9.85,69.6-35.28,169.98-24.89s244.78-0.14,309.87-25.44
	c43.14-16.77,121.43-33.64,173.12-43.49s40.75-64.27,35.55-101.19c-5.2-36.92-25.71-76.03-28.44-75.76s18.05,56.61,3.28,89.43
	c-11.55,25.68-38.82,36.33-62.64,25c-46.84-22.27-21.32-78.33,0.1-81.34c20.27-2.85,53.52,58.25,53.52,58.25l-64.16-23.82
	l63.34-13.11l-42.94,53.88c0,0-3-77.95,15.59-82.6c13.13-3.28,36.38,11.49,44.33,39.38c8.35,29.29-14.29,68.21-54.45,67.83
	c-57.16-0.55-67.83-66.19-46.84-94.77c24.9-33.91,70.56-23.38,83.48-34.67c12.92-11.28-6.15-34.26-9.44-56.41s16-44.72,11.08-49.23
	c-4.92-4.51-17.64-1.64-34.46,4.92s-55.38,3.69-88.61-5.74c-33.23-9.44-65.64-36.92-82.46-29.13s-5.74,30.36-32.41,84.1
	S546.71,794.39,499.12,821.06c-47.59,26.67-118.15,27.08-125.54,39.79c-7.38,12.72,11.35,24.69,25.85,30.36s22.97,12.72,40.61,12.72
	c17.64,0,20.1-13.13,32.41-22.97s89.84-43.08,133.33-72.2c43.49-29.13,124.71-111.18,122.66-122.25
	c-1.31-7.08-37.93-5.67-71.38,1.85c-18.91,4.25-37.62,7.63-46.36,19.49c-24.2,32.82,68.92,71.79,65.23,78.77
	s-116.92-18.05-128.82-7.38c-11.9,10.67,53.74,59.9,45.54,71.38s-106.25-32.82-118.56-21.33c-12.31,11.49,23.79,57.02,16,66.05
	c-7.79,9.03-112-18.46-113.64-25.85c-1.64-7.38,17.64-6.56,30.64-10.67c12.99-4.1,35.82-15.18,63.31-13.95
	c27.49,1.23,66.87,40.61,75.07,33.23c8.2-7.38-39.38-66.46-30.77-73.02c8.62-6.56,111.18,25.44,117.33,17.23
	c6.15-8.2-68.51-65.64-57.02-76.31c11.49-10.67,114.46,9.85,135.38-3.69c20.92-13.54-69.74-85.74-60.72-101.33
	c9.03-15.59,79.59,2.05,91.07-6.15c11.49-8.2-1.23-42.26,4.92-53.74s29.54-3.69,59.08-1.23s80.18-17.88,66.46-2.87
	s-92.31,22.15-100.51,11.9c-8.2-10.26,25.85-9.44,50.87-13.54s41.02-17.64,52.1-16.82c11.08,0.82,23.79,9.44,22.15,22.56
	c-1.64,13.13,6.97,5.74-75.07,11.9s-55.79,123.48-85.74,185.02s-82.46,85.33-206.35,139.89s-214.76,8.62-244.71-7.38
	s24.82-43.9,67.9-38.56s67.69,52.51,66.46,62.77c-1.23,10.26-64.82-1.23-95.18-4.92c-30.36-3.69-56.48-26.67-72.89-19.01
	s-5.88,62.9-34.46,74.94c-39.51,16.64-118.29-41.53-129.1-96.87C65.69,781.39,318.06,754.28,240.6,458.75
	s345.31-231.06,378.29-319.51C645.6,67.61,497.46,16.31,520.44-166.1"/>
</svg>
