<?xml version="1.0" encoding="utf-8"?>
<!-- Generator: Adobe Illustrator 25.4.1, SVG Export Plug-In . SVG Version: 6.00 Build 0)  -->
<svg version="1.1" id="레이어_1" xmlns="http://www.w3.org/2000/svg" xmlns:xlink="http://www.w3.org/1999/xlink" x="0px"
	 y="0px" viewBox="0 0 1200 1200" style="enable-background:new 0 0 1200 1200;" xml:space="preserve">
<style type="text/css">
	.st0{fill:none;stroke:#1C1D1B;stroke-width:5.6693;stroke-miterlimit:10;}
</style>
<path class="st0" d="M926.56-117.25c238.67,292,212.9,683.59,48.74,647.11c-104.42-23.2-196.14-246.15-224.78-293.02
	c-3.45-5.65-10.87-4.85-11.29,4.29c-2.85,62.27-2.54,327.27,5.51,384.5c0.96,6.8,10.27,10.19,16.11,4.21
	c19.85-20.35,54.39-89.87,97.24-144.52c47.84-61.02,103.83-107.87,115.74-135.95c2.82-6.64-4.06-15.68-11.56-15.17
	c-58.86,3.98-284.23,73.73-338.85,105.65c-7.8,4.56-8.21,15.98-1.72,18.99c51.33,23.84,287.15,57.3,361.48,101.9
	c233.19,139.92-18.55,368.86-487.85,258.56c-56.7-13.33-83.64-28.35-98.75-46.57c-17.39-20.97-12.89-50.54,8.07-63.24
	c25.93-15.7,50.81,1.19,57.93,20.74c27.96,76.88-116.22,234.8-89.55,301.76C403.95,1109.64,550,984.06,550,1205.1"/>
</svg>
